<svg width="18" height="17" viewBox="0 0 18 17" fill="none" xmlns="http://www.w3.org/2000/svg">
<g clip-path="url(#clip0_6_15)">
<path d="M6 9.91667H12M6 7.08333H7.5M6 12.75H9M7.5 2.125H4.5C4.10218 2.125 3.72064 2.27425 3.43934 2.53993C3.15804 2.80561 3 3.16594 3 3.54167V14.1667C3 14.5424 3.15804 14.9027 3.43934 15.1684C3.72064 15.4341 4.10218 15.5833 4.5 15.5833H13.5C13.8978 15.5833 14.2794 15.4341 14.5607 15.1684C14.842 14.9027 15 14.5424 15 14.1667V3.54167C15 3.16594 14.842 2.80561 14.5607 2.53993C14.2794 2.27425 13.8978 2.125 13.5 2.125H10.875M7.5 2.125V0.708332M7.5 2.125V3.54167" stroke="black" stroke-width="1.5" stroke-linecap="round" stroke-linejoin="round"/>
</g>
<defs>
<clipPath id="clip0_6_15">
<rect width="18" height="17" fill="white"/>
</clipPath>
</defs>
</svg>
